<?xml version="1.0" standalone="no"?>
<!DOCTYPE svg PUBLIC "-//W3C//DTD SVG 20010904//EN"
 "http://www.w3.org/TR/2001/REC-SVG-20010904/DTD/svg10.dtd">
<svg version="1.0" xmlns="http://www.w3.org/2000/svg"
 width="435.000000pt" height="192.000000pt" viewBox="0 0 435.000000 192.000000"
 preserveAspectRatio="xMidYMid meet">

<g transform="translate(0.000000,192.000000) scale(0.100000,-0.100000)"
fill="#000000" stroke="none">
<path d="M0 960 l0 -960 2175 0 2175 0 0 960 0 960 -1089 0 -1090 0 21 -47
c31 -71 57 -101 107 -126 l46 -22 835 -5 c777 -5 838 -6 863 -23 59 -38 62
-50 67 -307 5 -221 6 -238 28 -283 25 -50 70 -83 145 -107 20 -6 37 -15 37
-18 0 -4 -24 -16 -52 -26 -75 -26 -107 -52 -131 -105 -19 -41 -21 -72 -26
-281 -5 -202 -8 -239 -24 -261 -38 -56 -4 -54 -907 -59 -826 -5 -836 -5 -881
-26 -49 -23 -90 -69 -106 -119 -5 -16 -15 -30 -21 -30 -6 0 -26 25 -44 55 -39
64 -80 95 -149 109 -33 7 -316 11 -842 11 -756 0 -794 1 -834 19 -72 33 -77
52 -83 316 -4 199 -8 235 -24 268 -22 44 -71 87 -118 103 -17 6 -33 15 -35 21
-2 6 21 22 51 37 59 29 97 71 114 126 6 19 14 141 17 270 4 129 11 243 17 253
5 10 24 27 41 37 31 19 58 20 839 20 538 0 824 4 857 11 72 15 112 45 143 109
15 30 28 61 28 68 0 9 -221 12 -1075 12 l-1075 0 0 -960z"/>
<path d="M2160 1704 c0 -25 -32 -69 -63 -87 -17 -9 -212 -13 -832 -17 -911 -6
-857 -1 -889 -80 -13 -32 -16 -77 -16 -213 0 -94 -3 -189 -6 -210 -8 -45 -50
-93 -90 -102 -59 -13 -60 -16 -16 -37 87 -42 112 -116 112 -335 0 -149 10
-190 56 -220 26 -17 75 -18 845 -23 807 -5 818 -5 846 -26 15 -11 36 -36 45
-55 10 -19 18 -26 18 -17 0 34 48 76 101 87 33 7 310 11 827 11 833 0 805 -1
845 52 18 24 21 49 27 207 7 161 10 185 33 234 22 49 70 97 96 97 26 0 7 16
-36 30 -84 27 -87 38 -93 289 -5 236 -9 250 -67 288 -25 17 -85 18 -838 23
-914 6 -848 -1 -886 83 -13 29 -19 35 -19 21z m215 -274 l-16 -30 76 0 75 0 0
30 c0 28 2 30 40 30 38 0 40 -2 40 -30 l0 -30 115 0 115 0 0 -25 0 -25 -115 0
-115 0 0 -95 0 -95 115 0 115 0 0 -30 0 -30 -115 0 -115 0 0 -100 0 -100 115
0 115 0 0 -30 0 -30 -270 0 c-226 0 -270 2 -270 14 0 8 -3 21 -6 30 -5 14 9
16 115 16 l121 0 0 100 0 100 -115 0 -115 0 0 30 0 30 115 0 115 0 0 95 0 95
-115 0 -115 0 0 33 c0 51 24 77 71 77 l40 0 -16 -30z m985 0 c4 -19 13 -26 38
-28 37 -4 38 -1 16 33 l-16 25 39 0 c35 0 41 -4 56 -35 32 -66 26 -75 -49 -75
-57 0 -65 -2 -60 -17 3 -10 10 -37 15 -60 6 -24 16 -61 21 -83 l11 -40 30 35
c39 44 49 44 49 0 0 -24 -9 -45 -31 -70 l-31 -35 26 -105 c34 -135 34 -135 -8
-135 l-34 0 -18 78 c-10 42 -20 79 -22 82 -2 3 -30 -24 -63 -60 l-58 -65 -1
43 c0 38 6 51 51 102 l51 59 -28 120 c-15 66 -30 125 -34 131 -5 8 -54 13
-134 16 l-126 5 0 -46 0 -45 105 0 105 0 0 -146 c0 -80 -5 -165 -11 -190 -11
-43 -13 -44 -51 -44 -35 0 -38 2 -28 19 5 11 10 83 10 160 l0 141 -65 0 -65 0
0 -155 c0 -181 -7 -205 -58 -205 -29 0 -33 3 -26 18 5 9 10 137 12 283 l3 266
88 -5 c49 -2 119 -1 156 3 65 7 67 8 61 32 -6 23 -5 24 31 21 30 -2 38 -8 43
-28z m-2212 -75 c78 -33 122 -101 122 -190 0 -89 -44 -157 -122 -190 -36 -14
-188 -22 -188 -9 0 3 8 19 17 35 16 26 22 29 73 29 99 0 159 63 147 154 -11
82 -62 114 -179 115 l-68 1 0 -244 c0 -283 -4 -306 -57 -306 -32 0 -35 2 -27
23 4 12 9 151 11 310 l4 287 115 0 c81 0 126 -5 152 -15z m522 -7 c26 -14 57
-41 75 -66 27 -39 30 -52 30 -117 0 -65 -3 -78 -30 -117 -45 -64 -100 -88
-202 -88 l-83 0 -1 -67 c0 -38 -5 -84 -12 -103 -10 -30 -17 -36 -46 -38 -31
-3 -33 -2 -27 20 3 13 6 152 6 311 l0 287 123 0 c107 0 128 -3 167 -22z m350
-63 l0 -35 70 0 70 0 -17 -35 c-16 -34 -19 -35 -70 -35 l-53 0 0 -104 c0 -97
2 -105 25 -131 22 -23 32 -26 70 -23 l45 3 0 -37 c0 -32 -4 -39 -25 -44 -38
-9 -84 3 -122 32 -54 41 -63 69 -63 194 l0 110 -40 0 c-39 0 -40 1 -40 34 0
33 2 35 38 38 34 3 37 6 40 36 3 29 6 32 38 32 32 0 34 -2 34 -35z m-739 -666
c12 -20 11 -53 -3 -67 -7 -7 -29 -12 -50 -12 -37 0 -38 -1 -38 -35 0 -19 -4
-35 -9 -35 -14 0 -16 23 -13 102 l4 70 50 -4 c28 -3 54 -12 59 -19z m150 2
c20 -16 22 -23 14 -47 -9 -25 -16 -29 -53 -32 -41 -3 -42 -4 -42 -38 0 -24 -5
-34 -15 -34 -12 0 -15 16 -15 85 l0 85 44 0 c28 0 52 -7 67 -19z m169 4 c0
-10 -10 -15 -30 -15 l-30 0 0 -70 c0 -40 -4 -70 -10 -70 -6 0 -10 30 -10 70
l0 70 -30 0 c-20 0 -30 5 -30 15 0 12 14 15 70 15 56 0 70 -3 70 -15z m210 -5
c11 -11 20 -24 20 -30 0 -17 -21 -11 -40 12 -39 49 -107 -15 -84 -79 8 -24 15
-28 49 -28 30 0 41 4 43 18 2 12 -3 17 -17 17 -12 0 -21 6 -21 15 0 10 11 15
35 15 35 0 35 0 35 -44 0 -48 3 -46 -72 -48 -53 -2 -78 23 -78 79 0 79 80 123
130 73z m180 5 c0 -11 -12 -15 -50 -15 -47 0 -50 -2 -50 -26 0 -24 3 -25 46
-22 31 2 48 -1 51 -9 3 -9 -10 -13 -46 -13 -48 0 -51 -2 -51 -25 0 -24 3 -25
56 -25 35 0 54 -4 52 -11 -2 -6 -7 -10 -11 -10 -4 1 -31 1 -61 1 l-54 0 -4 78
c-3 42 -3 80 -1 85 2 4 31 7 64 7 46 0 59 -3 59 -15z m101 -54 l39 -65 0 68
c0 50 3 67 13 64 8 -3 13 -32 15 -86 2 -73 1 -82 -15 -82 -11 0 -32 22 -53 54
-38 60 -50 58 -50 -11 0 -24 -4 -43 -10 -43 -6 0 -10 35 -10 86 0 106 14 109
71 15z m224 54 c0 -5 -21 -11 -47 -13 -43 -3 -48 -5 -48 -28 0 -22 4 -24 45
-24 25 0 45 -4 45 -10 0 -5 -20 -10 -45 -10 -41 0 -45 -2 -45 -25 0 -23 3 -25
50 -25 28 0 50 -4 50 -10 0 -6 -28 -10 -65 -10 l-65 0 0 85 0 86 63 -3 c34 -2
62 -7 62 -13z m139 5 c27 -10 37 -52 16 -65 -7 -4 -7 -11 -2 -18 15 -19 20
-77 7 -77 -6 0 -15 15 -20 33 -9 28 -15 32 -47 35 -37 3 -38 3 -38 -32 0 -20
-4 -36 -10 -36 -6 0 -10 35 -10 85 l0 85 39 0 c22 0 51 -4 65 -10z m141 -7
c36 -88 53 -153 40 -153 -7 0 -17 9 -20 20 -5 15 -15 20 -42 20 -26 0 -36 -5
-40 -20 -3 -11 -11 -20 -19 -20 -10 0 -6 21 16 81 17 44 30 82 30 85 0 12 29
1 35 -13z m195 2 c0 -9 -9 -15 -25 -15 -24 0 -25 -2 -25 -70 0 -56 -3 -70 -15
-70 -12 0 -15 14 -15 70 0 68 -1 70 -24 70 -26 0 -40 12 -29 24 3 3 35 6 70 6
49 0 63 -3 63 -15z m50 -70 c0 -69 -3 -85 -15 -85 -12 0 -15 15 -15 78 0 43 3
82 7 85 18 18 23 0 23 -78z m165 60 c25 -24 33 -73 19 -110 -9 -23 -62 -48
-90 -41 -94 24 -80 176 16 176 19 0 40 -9 55 -25z m122 -42 l43 -68 0 68 c0
88 17 87 22 -2 6 -123 -8 -131 -67 -39 l-40 63 -3 -63 c-4 -93 -22 -75 -22 23
0 62 3 85 13 85 7 0 31 -30 54 -67z"/>
<path d="M1460 1135 c0 -91 2 -165 5 -165 2 0 11 14 20 30 14 28 19 30 71 30
98 0 148 46 148 135 0 92 -57 135 -179 135 l-65 0 0 -165z"/>
<path d="M1190 585 c0 -22 4 -25 34 -25 22 0 36 6 40 16 9 24 -2 34 -40 34
-30 0 -34 -3 -34 -25z"/>
<path d="M1350 584 c0 -23 3 -25 33 -22 24 2 33 8 35 26 3 19 -1 22 -32 22
-32 0 -36 -3 -36 -26z"/>
<path d="M2370 585 c0 -22 4 -25 39 -25 26 0 41 5 45 16 10 25 -2 34 -45 34
-35 0 -39 -3 -39 -25z"/>
<path d="M2561 570 c-9 -28 -8 -30 14 -30 22 0 23 2 14 30 -6 17 -12 30 -14
30 -2 0 -8 -13 -14 -30z"/>
<path d="M2923 612 c-6 -4 -16 -20 -22 -35 -29 -75 62 -126 100 -56 27 52 -31
121 -78 91z"/>
</g>
</svg>
